# xmcd CD database file
#
# Track frame offsets:
#	183
#	14610
#	28310
#	41403
#	50778
#	60653
#	71618
#	84030
#	94225
#	103200
#	117800
#	130895
#
# Disc length: 2014 seconds
#
# Revision: 0
# Processed by: cddbd v1.5.2PL0 Copyright (c) Steve Scherf et al.
# Submitted via: CDex 1.70beta2
#
DISCID=a407dc0c
DTITLE=Toots Thielemans and Elis Regina - Aquarela do Brasil
DYEAR=1969
DGENRE=Jazz
TTITLE0=Wave
TTITLE1=Aquarela do Brasil
TTITLE2=Visao
TTITLE3=Corrida de Jangada
TTITLE4=Wilsamba
TTITLE5=Voce
TTITLE6=Barquinho
TTITLE7=O sonho
TTITLE8=Five for Elis
TTITLE9=Canto de Ossanha
TTITLE10=Honeysuckle Rose
TTITLE11=Volta
EXTD=YEAR: 1969
EXTT0=
EXTT1=
EXTT2=
EXTT3=
EXTT4=
EXTT5=
EXTT6=
EXTT7=
EXTT8=
EXTT9=
EXTT10=
EXTT11=
PLAYORDER=
